<?xml version="1.0" encoding="UTF-8"?>
<svg xmlns="http://www.w3.org/2000/svg" viewBox="0 0 327.12 235.55">
  <style>
    /* Difoltno: tamna popuna (za svetle tema browsera) */
    path { fill: #231f20; }
    /* Kad je browser u tamnoj temi → svetla popuna */
    @media (prefers-color-scheme: dark) {
      path { fill: #ffffff; }
    }
  </style>
  <path d="M327.06,89.55c-.06-.24-.18-.49-.36-.67-.09-.09-.19-.18-.31-.24h-.03l-62.51-36.9-.27-26.95,31.59,4.06c.76.1,1.51-.42,1.67-1.21.15-.79-.34-1.55-1.1-1.76l-32.26-8.68-.03-3.28,48.74,14.75c.76.21,1.58-.18,1.85-.91.28-.76-.06-1.61-.79-1.94l-50.8-23.25-5.28-2.42c-.45-.22-.97-.19-1.39.09-.46.24-.73.7-.76,1.21l-.79,13.23-12.44-3.34-5.59-1.54c-.48-.12-1,0-1.39.33-.4.3-.58.82-.52,1.31l4.49,42.09-25.64,2.64c-.09,0-.15,0-.21.03h-.13c-.06,0-.12.03-.18.06-.21.06-.36.15-.51.27-.06.03-.13.09-.16.15-.15.15-.27.37-.33.58l-.03.15-15.11,51.26-5.53,18.75-30.92-6.22c-.09-.03-.18-.03-.27-.03-.15,0-.34.03-.49.09-.12.03-.24.06-.33.12,0,.03-.03.03-.03.03l-.09.06-14.69,9.44-18.63-22.91-12.36-15.2c-.33-.4-.81-.58-1.33-.55-.52.06-.94.33-1.18.79l-7.74,14.47-11.08-13.62c-.33-.4-.82-.58-1.33-.55-.52.06-.95.34-1.19.79l-8.89,16.69-3.85,7.22L.92,163.84c-.09.06-.18.09-.27.15-.09.06-.18.15-.24.21-.04.03-.07.06-.07.09-.09.06-.15.16-.15.28-.09.09-.12.15-.12.24-.03.06-.06.12-.06.18-.03.06,0,.15,0,.21s0,.16.03.22v.18c0,.06.03.12.06.15.03.18.12.33.24.46l30.75,37.08-16,30.01c-.39.7-.15,1.58.55,2.01.24.15.52.24.79.24.48,0,.94-.24,1.24-.67l18.79-26.89,12.71.31-12.74,23.91c-.4.7-.15,1.58.54,2,.25.16.52.25.79.25.49,0,.94-.25,1.25-.67l17.66-25.31,83.51,2h.06c.16,0,.31-.03.49-.09h.03c.27-.09.49-.27.64-.48.24-.25.36-.61.36-.95,0-.09-.03-.15-.03-.24l-3.22-19.48,64.92,3,15.75,42.31c.24.6.82.97,1.42.97.12,0,.22,0,.34-.03.76-.15,1.24-.85,1.18-1.61l-3.67-42.52v-.12l-.88-10.32c-.06-.69-.61-1.27-1.31-1.36l-15.99-2.19c-.09,0-.18-.03-.24-.03l-18.33-2.52,9.44-8.46,27.58-8.29,28.95,34.63c.31.36.73.54,1.16.54.27,0,.54-.09.82-.24.63-.39.88-1.21.57-1.91l-21.97-48.4c-.27-.64-1-1-1.67-.85l-10.5,2.15,27.04-24.25,8.74,1.76,8.98,1.79,1.79.37s.07.03.1.03c.12.03.21.03.3.03.15,0,.3-.03.42-.06h.09s.1-.03.13-.06.03-.03.06-.03l.03-.03c.06-.03.09-.06.15-.09l42.55-21.91,5.61,17.84c.18.61.73,1.03,1.37,1.06h.06c.6,0,1.18-.36,1.39-.91l12.11-28.98c.09-.18.12-.36.12-.55,0-.15,0-.3-.06-.45ZM237.54,13.32l16.51,4.46-.19,2.7-10.89-1.4c-.46-.03-.94.12-1.28.46-.33.36-.48.85-.39,1.33l5.68,31.78-5.19.54-4.25-39.87ZM253.68,23.51l-1.7,28.62-1.97.21-5.37-29.98,9.04,1.15ZM239.12,56.53l3-.33,5.4-.55,3.01-.33,1.24-.12-.3,5.34v.06l-.79,12.86-1.67,28.14-2.37-3.04-.03-.03-3.52-4.52v-.03l-27.16-35.05,23.19-2.4ZM190.1,130.37l-5.94,20.18-.97,3.3-3.8,12.9h-.03l-1,3.46-.21.7-.21-.58-.98-2.85h-.03l-4-11.53-1-2.88-9.9-28.38,28.07,5.68ZM146.04,133.28l12.9-8.29,9.98,28.68,1,2.89h.03l4.1,11.8,1,2.85.97,2.83-7.13-.98-7.19-1-4.61-.6-3.16-.46-.73-.09-3.73-.52-9.41-1.27-3.85-.55-1.12-.15h-.03l-.4-2.43v-.03l-1.33-8.1-2.46-14.81,12.59-8.1,2.58-1.67ZM141.55,132.58l-12.05,7.71-13.56-16.69,8.46-12.11,17.15,21.09ZM112.2,96.5l10.23,12.56-8.47,12.08-8.98-11.08,7.22-13.56ZM103.07,112.58l.33.43,8.74,10.74,1.98,2.43.78.97,9.08,11.14,3.79,4.67.06.39,1.22,7.41h.03v.03l1.33,8.07v.03l1.67,10.11.18,1v.06l2.95,17.81,2.21,13.48-35.02-58.39-1.7-2.82-6.22-10.38-1.15-1.94-.43-.7,1.49-2.13,8.44-12.1.24-.31ZM73.75,123.29l-35.29,66.19-34.17-24.15,69.46-42.04ZM9.99,173.09l27.01,19.12-4.37,8.17-22.64-27.29ZM34.3,205.78l-.51.76-4.1,5.85,3.49-6.58.88-1.61s.03,0,.03-.03c.09-.09.15-.18.21-.3l.46-.88,4.19-7.99,1.36-2.57,4.07-7.62.09-.15,34.44-64.61.12-.28.73-1.36,2.07-3.86,1.67-3.12,7.37-13.84,10.2,12.53-9.5,13.6-.37.55-1.39,1.97-.52.76-44.12,63.21-.06.09-10.81,15.48ZM51.02,211.3l1.55-2.94.49.03-2.04,2.91ZM58.76,205.47l-3.61-.09h-.97l-3.4-.09-12.26-.3,52.47-75.14h.03l1.79,3,6.01,9.99,1.7,2.85,36.99,61.67-78.75-1.89ZM214.66,182.41l.3,3.49.58,6.92.85,9.89,1.76,20.34-7.41-19.94-4-10.71-1.16-3.1-.7-1.91-2.51-6.68,12.29,1.7ZM198.94,180.26l3.33,8.89-42.57-1.97-12.69-.58-9.01-.43-2.4-14.62,2.61.36,3.86.52v.03l8.64,1.15.58.09,3.16.43,3.15.45,4.31.58,15.96,2.18.46.06,20.61,2.86ZM226.01,145.05l16.84,37.15-22.46-26.83c-.3-.36-.73-.54-1.15-.54-.15,0-.31,0-.46.06l-22.33,6.73,15.14-13.62,14.42-2.95ZM210.19,145.21l-4.46,4-16.11,14.45-5.31,4.76-3.07,2.76.58-2h.03l1-3.49,3.7-12.53.98-3.31,5.94-20.24,5.53-18.76,40.42,8.14-29.23,26.22ZM252.53,118.56l-5.28-1.06-4.22-.85-43.15-8.71,13.8-46.98,30.05,38.76v.03l3.52,4.52v.03l1.79,2.3.09.13,9.74,12.56v.03l.09.52-6.43-1.28ZM262.33,10.43c-.45-.15-.94-.06-1.33.25-.4.27-.61.72-.61,1.21l.06,4.49.03,3.13v1.82l.03,3.06.14,13.96v.42l.27,24.61.05,4.02.07,6.98.14,13.38.27,28.65v1.27l-3.73-4.79v-.03l-5.89-7.62,1.15-19,.7-11.86.06-1.04v-.09l.4-6.55,1.53-25.32h.01l1.04-17.47.18-3.04.15-2.27.18-3.1.7-11.65,33.78,15.45-29.38-8.87ZM263.51,20.33l9.87,2.67-9.84-1.28-.03-1.39ZM264.52,119.74l-.64-63.33,40.97,42.52-40.33,20.81ZM307.67,97.5l-3.7-3.82-32.84-34.11,27.16,16.02,24.16,14.26-14.2,7.35-.58.3ZM313.71,114.52l-4.52-14.38,13.41-6.92-8.89,21.3Z"/>
</svg>
