<?xml version="1.0" encoding="UTF-8"?>
<svg id="Layer_2" data-name="Layer 2" xmlns="http://www.w3.org/2000/svg" viewBox="0 0 531.47 235.55">
  <defs>
    <style>
      .cls-1 {
        fill: #231f20;
      }
    </style>
  </defs>
  <g id="Layer_1-2" data-name="Layer 1">
    <g>
      <path class="cls-1" d="M327.06,89.55c-.06-.24-.18-.49-.36-.67-.09-.09-.19-.18-.31-.24h-.03l-62.51-36.9-.27-26.95,31.59,4.06c.76.1,1.51-.42,1.67-1.21.15-.79-.34-1.55-1.1-1.76l-32.26-8.68-.03-3.28,48.74,14.75c.76.21,1.58-.18,1.85-.91.28-.76-.06-1.61-.79-1.94l-50.8-23.25-5.28-2.42c-.45-.22-.97-.19-1.39.09-.46.24-.73.7-.76,1.21l-.79,13.23-12.44-3.34-5.59-1.54c-.48-.12-1,0-1.39.33-.4.3-.58.82-.52,1.31l4.49,42.09-25.64,2.64c-.09,0-.15,0-.21.03h-.13c-.06,0-.12.03-.18.06-.21.06-.36.15-.51.27-.06.03-.13.09-.16.15-.15.15-.27.37-.33.58l-.03.15-15.11,51.26-5.53,18.75-30.92-6.22c-.09-.03-.18-.03-.27-.03-.15,0-.34.03-.49.09-.12.03-.24.06-.33.12,0,.03-.03.03-.03.03l-.09.06-14.69,9.44-18.63-22.91-12.36-15.2c-.33-.4-.81-.58-1.33-.55-.52.06-.94.33-1.18.79l-7.74,14.47-11.08-13.62c-.33-.4-.82-.58-1.33-.55-.52.06-.95.34-1.19.79l-8.89,16.69-3.85,7.22L.92,163.84c-.09.06-.18.09-.27.15-.09.06-.18.15-.24.21-.04.03-.07.06-.07.09-.09.06-.15.16-.15.28-.09.09-.12.15-.12.24-.03.06-.06.12-.06.18-.03.06,0,.15,0,.21s0,.16.03.22v.18c0,.06.03.12.06.15.03.18.12.33.24.46l30.75,37.08-16,30.01c-.39.7-.15,1.58.55,2.01.24.15.52.24.79.24.48,0,.94-.24,1.24-.67l18.79-26.89,12.71.31-12.74,23.91c-.4.7-.15,1.58.54,2,.25.16.52.25.79.25.49,0,.94-.25,1.25-.67l17.66-25.31,83.51,2h.06c.16,0,.31-.03.49-.09h.03c.27-.09.49-.27.64-.48.24-.25.36-.61.36-.95,0-.09-.03-.15-.03-.24l-3.22-19.48,64.92,3,15.75,42.31c.24.6.82.97,1.42.97.12,0,.22,0,.34-.03.76-.15,1.24-.85,1.18-1.61l-3.67-42.52v-.12l-.88-10.32c-.06-.69-.61-1.27-1.31-1.36l-15.99-2.19c-.09,0-.18-.03-.24-.03l-18.33-2.52,9.44-8.46,27.58-8.29,28.95,34.63c.31.36.73.54,1.16.54.27,0,.54-.09.82-.24.63-.39.88-1.21.57-1.91l-21.97-48.4c-.27-.64-1-1-1.67-.85l-10.5,2.15,27.04-24.25,8.74,1.76,8.98,1.79,1.79.37s.07.03.1.03c.12.03.21.03.3.03.15,0,.3-.03.42-.06h.09s.1-.03.13-.06.03-.03.06-.03l.03-.03c.06-.03.09-.06.15-.09l42.55-21.91,5.61,17.84c.18.61.73,1.03,1.37,1.06h.06c.6,0,1.18-.36,1.39-.91l12.11-28.98c.09-.18.12-.36.12-.55,0-.15,0-.3-.06-.45ZM237.54,13.32l16.51,4.46-.19,2.7-10.89-1.4c-.46-.03-.94.12-1.28.46-.33.36-.48.85-.39,1.33l5.68,31.78-5.19.54-4.25-39.87ZM253.68,23.51l-1.7,28.62-1.97.21-5.37-29.98,9.04,1.15ZM239.12,56.53l3-.33,5.4-.55,3.01-.33,1.24-.12-.3,5.34v.06l-.79,12.86-1.67,28.14-2.37-3.04-.03-.03-3.52-4.52v-.03l-27.16-35.05,23.19-2.4ZM190.1,130.37l-5.94,20.18-.97,3.3-3.8,12.9h-.03l-1,3.46-.21.7-.21-.58-.98-2.85h-.03l-4-11.53-1-2.88-9.9-28.38,28.07,5.68ZM146.04,133.28l12.9-8.29,9.98,28.68,1,2.89h.03l4.1,11.8,1,2.85.97,2.83-7.13-.98-7.19-1-4.61-.6-3.16-.46-.73-.09-3.73-.52-9.41-1.27-3.85-.55-1.12-.15h-.03l-.4-2.43v-.03l-1.33-8.1-2.46-14.81,12.59-8.1,2.58-1.67ZM141.55,132.58l-12.05,7.71-13.56-16.69,8.46-12.11,17.15,21.09ZM112.2,96.5l10.23,12.56-8.47,12.08-8.98-11.08,7.22-13.56ZM103.07,112.58l.33.43,8.74,10.74,1.98,2.43.78.97,9.08,11.14,3.79,4.67.06.39,1.22,7.41h.03v.03l1.33,8.07v.03l1.67,10.11.18,1v.06l2.95,17.81,2.21,13.48-35.02-58.39-1.7-2.82-6.22-10.38-1.15-1.94-.43-.7,1.49-2.13,8.44-12.1.24-.31ZM73.75,123.29l-35.29,66.19-34.17-24.15,69.46-42.04ZM9.99,173.09l27.01,19.12-4.37,8.17-22.64-27.29ZM34.3,205.78l-.51.76-4.1,5.85,3.49-6.58.88-1.61s.03,0,.03-.03c.09-.09.15-.18.21-.3l.46-.88,4.19-7.99,1.36-2.57,4.07-7.62.09-.15,34.44-64.61.12-.28.73-1.36,2.07-3.86,1.67-3.12,7.37-13.84,10.2,12.53-9.5,13.6-.37.55-1.39,1.97-.52.76-44.12,63.21-.06.09-10.81,15.48ZM51.02,211.3l1.55-2.94.49.03-2.04,2.91ZM58.76,205.47l-3.61-.09h-.97l-3.4-.09-12.26-.3,52.47-75.14h.03l1.79,3,6.01,9.99,1.7,2.85,36.99,61.67-78.75-1.89ZM214.66,182.41l.3,3.49.58,6.92.85,9.89,1.76,20.34-7.41-19.94-4-10.71-1.16-3.1-.7-1.91-2.51-6.68,12.29,1.7ZM198.94,180.26l3.33,8.89-42.57-1.97-12.69-.58-9.01-.43-2.4-14.62,2.61.36,3.86.52v.03l8.64,1.15.58.09,3.16.43,3.15.45,4.31.58,15.96,2.18.46.06,20.61,2.86ZM226.01,145.05l16.84,37.15-22.46-26.83c-.3-.36-.73-.54-1.15-.54-.15,0-.31,0-.46.06l-22.33,6.73,15.14-13.62,14.42-2.95ZM210.19,145.21l-4.46,4-16.11,14.45-5.31,4.76-3.07,2.76.58-2h.03l1-3.49,3.7-12.53.98-3.31,5.94-20.24,5.53-18.76,40.42,8.14-29.23,26.22ZM252.53,118.56l-5.28-1.06-4.22-.85-43.15-8.71,13.8-46.98,30.05,38.76v.03l3.52,4.52v.03l1.79,2.3.09.13,9.74,12.56v.03l.09.52-6.43-1.28ZM262.33,10.43c-.45-.15-.94-.06-1.33.25-.4.27-.61.72-.61,1.21l.06,4.49.03,3.13v1.82l.03,3.06.14,13.96v.42l.27,24.61.05,4.02.07,6.98.14,13.38.27,28.65v1.27l-3.73-4.79v-.03l-5.89-7.62,1.15-19,.7-11.86.06-1.04v-.09l.4-6.55,1.53-25.32h.01l1.04-17.47.18-3.04.15-2.27.18-3.1.7-11.65,33.78,15.45-29.38-8.87ZM263.51,20.33l9.87,2.67-9.84-1.28-.03-1.39ZM264.52,119.74l-.64-63.33,40.97,42.52-40.33,20.81ZM307.67,97.5l-3.7-3.82-32.84-34.11,27.16,16.02,24.16,14.26-14.2,7.35-.58.3ZM313.71,114.52l-4.52-14.38,13.41-6.92-8.89,21.3Z"/>
      <g>
        <g>
          <path class="cls-1" d="M374.65,70.28v-4.36c0-1.91-.21-3.68-.64-5.31-.43-1.62-1.1-3.03-2.03-4.21-.93-1.18-2.11-2.1-3.54-2.78-1.42-.68-3.14-1.02-5.15-1.02s-3.72.34-5.15,1.02c-1.43.68-2.61,1.6-3.54,2.78-.92,1.18-1.6,2.59-2.03,4.21-.42,1.63-.64,3.4-.64,5.31v26.93c0,1.9.22,3.67.64,5.3.43,1.63,1.11,3.03,2.03,4.21.93,1.18,2.11,2.11,3.54,2.78,1.43.68,3.15,1.02,5.15,1.02s3.73-.34,5.15-1.02c1.43-.67,2.61-1.6,3.54-2.78s1.6-2.58,2.03-4.21c.43-1.63.64-3.4.64-5.3v-6.02h-3.31v6.24c0,1.41-.14,2.71-.41,3.91-.28,1.21-.74,2.25-1.4,3.12-.65.88-1.47,1.57-2.48,2.07-1,.5-2.23.76-3.68.76s-2.68-.26-3.69-.76c-1-.5-1.83-1.19-2.48-2.07-.65-.87-1.12-1.91-1.39-3.12-.28-1.2-.41-2.5-.41-3.91v-27.38c0-1.4.13-2.7.41-3.91.27-1.2.74-2.26,1.39-3.16.65-.9,1.48-1.6,2.48-2.1,1.01-.5,2.23-.76,3.69-.76s2.68.26,3.68.76c1.01.5,1.83,1.2,2.48,2.1.66.9,1.12,1.96,1.4,3.16.27,1.21.41,2.51.41,3.91v4.59h3.31Z"/>
          <path class="cls-1" d="M396.09,52.98h-5.04l-11.51,52.73h3.16l2.63-11.66h16.4l2.63,11.66h3.46l-11.73-52.73ZM385.86,91.04l7.59-34.07,7.75,34.07h-15.34Z"/>
          <path class="cls-1" d="M435.57,102.74c-.15-1.13-.22-2.25-.22-3.35v-8.2c0-2.86-.59-5.22-1.77-7.07-1.18-1.86-3.12-3.08-5.83-3.69,5.07-1.15,7.6-4.78,7.6-10.9v-4.59c0-3.71-.88-6.62-2.63-8.73-1.76-2.1-4.64-3.16-8.65-3.16h-10.99v52.66h3.47v-23.54h5.48c1.51,0,2.86.13,4.07.41,1.2.27,2.24.75,3.12,1.43.87.67,1.54,1.59,1.99,2.74.45,1.16.68,2.61.68,4.37v8.27c0,1.46.08,2.67.22,3.65.15.98.46,1.87.91,2.67h3.61c-.55-.85-.9-1.85-1.06-2.97ZM422.11,79.01h-5.56v-22.8h7.44c2.86,0,4.89.79,6.09,2.37,1.21,1.58,1.81,3.8,1.81,6.66v4.96c0,1.76-.23,3.21-.68,4.37-.45,1.15-1.09,2.05-1.92,2.71-.82.65-1.84,1.1-3.04,1.35-1.2.25-2.59.38-4.14.38Z"/>
          <path class="cls-1" d="M464.6,69.83v-3.91c0-1.91-.21-3.68-.63-5.31-.43-1.62-1.11-3.03-2.04-4.21-.92-1.18-2.1-2.1-3.53-2.78s-3.15-1.02-5.15-1.02-3.72.34-5.16,1.02c-1.42.68-2.6,1.6-3.53,2.78-.93,1.18-1.6,2.59-2.03,4.21-.43,1.63-.64,3.4-.64,5.31v26.93c0,1.9.21,3.67.64,5.3s1.1,3.03,2.03,4.21,2.11,2.11,3.53,2.78c1.44.68,3.15,1.02,5.16,1.02s3.72-.34,5.15-1.02c1.43-.67,2.61-1.6,3.53-2.78.93-1.18,1.61-2.58,2.04-4.21.42-1.63.63-3.4.63-5.3v-14.3h-10.3v3.16h7v11.36c0,1.41-.14,2.71-.42,3.91-.27,1.21-.74,2.25-1.39,3.12-.65.88-1.48,1.57-2.48,2.07s-2.23.76-3.68.76-2.69-.26-3.69-.76c-1.01-.5-1.83-1.19-2.48-2.07-.66-.87-1.12-1.91-1.39-3.12-.28-1.2-.42-2.5-.42-3.91v-27.38c0-1.4.14-2.7.42-3.91.27-1.2.73-2.26,1.39-3.16.65-.9,1.47-1.6,2.48-2.1,1-.5,2.23-.76,3.69-.76s2.68.26,3.68.76,1.83,1.2,2.48,2.1c.65.9,1.12,1.96,1.39,3.16.28,1.21.42,2.51.42,3.91v4.14h3.3Z"/>
          <path class="cls-1" d="M492.66,60.61c-.45-1.62-1.15-3.03-2.1-4.21-.96-1.18-2.17-2.1-3.65-2.78s-3.22-1.02-5.23-1.02-3.74.34-5.19,1.02-2.64,1.6-3.57,2.78c-.93,1.18-1.62,2.59-2.07,4.21-.45,1.63-.68,3.4-.68,5.31v26.93c0,1.9.23,3.67.68,5.3s1.14,3.03,2.07,4.21,2.12,2.11,3.57,2.78c1.45.68,3.19,1.02,5.19,1.02s3.75-.34,5.23-1.02c1.48-.67,2.69-1.6,3.65-2.78.95-1.18,1.65-2.58,2.1-4.21.46-1.63.68-3.4.68-5.3v-26.93c0-1.91-.22-3.68-.68-5.31ZM489.88,93.07c0,2.86-.64,5.23-1.92,7.11-1.28,1.88-3.37,2.82-6.28,2.82s-4.97-.94-6.2-2.82-1.85-4.25-1.85-7.11v-27.38c0-2.86.62-5.23,1.85-7.11s3.29-2.82,6.2-2.82,5,.94,6.28,2.82c1.28,1.88,1.92,4.25,1.92,7.11v27.38Z"/>
        </g>
        <g>
          <path class="cls-1" d="M373.26,150.76c-.93-1.71-2.11-3.22-3.54-4.55-1.43-1.33-2.96-2.56-4.59-3.69-1.63-1.13-3.16-2.31-4.58-3.53-1.43-1.23-2.61-2.6-3.54-4.11-.93-1.5-1.39-3.33-1.39-5.48,0-2.81.59-5.13,1.77-6.96,1.18-1.83,3.19-2.75,6.05-2.75,1.41,0,2.61.25,3.61.76,1.01.5,1.82,1.19,2.45,2.06.62.88,1.07,1.91,1.35,3.09.28,1.18.42,2.47.42,3.87v1.35h3.31v-1.12c0-1.91-.22-3.66-.64-5.27-.43-1.6-1.1-2.99-2-4.17-.9-1.18-2.06-2.1-3.46-2.75-1.4-.65-3.11-.98-5.11-.98-3.91.05-6.76,1.26-8.54,3.61-1.78,2.36-2.67,5.52-2.67,9.48,0,2.46.46,4.55,1.39,6.28.93,1.73,2.11,3.26,3.53,4.59,1.44,1.33,2.96,2.54,4.59,3.65,1.63,1.1,3.16,2.27,4.59,3.49,1.43,1.23,2.61,2.6,3.54,4.11.93,1.5,1.39,3.31,1.39,5.41,0,2.81-.6,5.13-1.81,6.96-1.2,1.83-3.26,2.74-6.16,2.74s-4.97-.91-6.17-2.74c-1.2-1.83-1.81-4.15-1.81-6.96v-2.93h-3.31v2.7c0,1.91.22,3.67.64,5.27.43,1.6,1.11,3,2.03,4.17.93,1.18,2.11,2.1,3.54,2.75,1.43.65,3.15.98,5.15.98s3.73-.33,5.15-.98c1.43-.65,2.61-1.57,3.54-2.75.93-1.17,1.6-2.57,2.03-4.17.43-1.6.64-3.36.64-5.27,0-2.4-.47-4.46-1.39-6.16Z"/>
          <path class="cls-1" d="M399.81,120.48c-1.73-2.33-4.63-3.5-8.69-3.5h-10.91v52.66h3.46v-21.67h6.55c4.21,0,7.29-1.02,9.25-3.08,1.95-2.06,2.93-5.19,2.93-9.4v-5.72c0-3.86-.86-6.96-2.59-9.29ZM398.94,135.71c0,3.21-.69,5.53-2.06,6.96-1.39,1.43-3.61,2.15-6.66,2.15h-6.55v-24.68h7.45c2.96,0,5,.86,6.13,2.56,1.13,1.71,1.69,3.99,1.69,6.84v6.17Z"/>
          <path class="cls-1" d="M428.5,120.14v-3.16h-20.76v52.66h20.76v-3.16h-17.29v-21.97h14.36v-3.16h-14.36v-21.21h17.29Z"/>
          <path class="cls-1" d="M456.63,134.21v-4.36c0-1.91-.21-3.68-.63-5.31-.43-1.62-1.11-3.03-2.04-4.21-.92-1.18-2.1-2.1-3.53-2.78s-3.15-1.02-5.15-1.02-3.72.34-5.16,1.02c-1.42.68-2.6,1.6-3.53,2.78s-1.6,2.59-2.03,4.21c-.43,1.63-.64,3.4-.64,5.31v26.92c0,1.91.21,3.68.64,5.31s1.1,3.03,2.03,4.21,2.11,2.1,3.53,2.78c1.44.68,3.15,1.02,5.16,1.02s3.72-.34,5.15-1.02,2.61-1.6,3.53-2.78c.93-1.18,1.61-2.58,2.04-4.21.42-1.63.63-3.4.63-5.31v-6.01h-3.3v6.24c0,1.4-.14,2.71-.42,3.91-.27,1.2-.74,2.24-1.39,3.12-.65.88-1.48,1.57-2.48,2.07s-2.23.75-3.68.75-2.69-.25-3.69-.75c-1.01-.5-1.83-1.19-2.48-2.07-.66-.88-1.12-1.92-1.39-3.12-.28-1.2-.42-2.51-.42-3.91v-27.38c0-1.4.14-2.71.42-3.91.27-1.2.73-2.26,1.39-3.16.65-.9,1.47-1.6,2.48-2.1,1-.51,2.23-.76,3.69-.76s2.68.25,3.68.76c1,.5,1.83,1.2,2.48,2.1.65.9,1.12,1.96,1.39,3.16.28,1.2.42,2.51.42,3.91v4.59h3.3Z"/>
          <path class="cls-1" d="M462.28,116.98v52.66h3.46v-52.66h-3.46Z"/>
          <path class="cls-1" d="M487.55,116.91h-5.04l-11.51,52.73h3.16l2.64-11.66h16.39l2.63,11.66h3.46l-11.73-52.73ZM477.32,154.97l7.6-34.07,7.75,34.07h-15.35Z"/>
          <path class="cls-1" d="M508.01,166.48v-49.5h-3.47v52.66h20.01v-3.16h-16.54Z"/>
        </g>
        <g>
          <path class="cls-1" d="M355.77,230.41v-49.5h-3.46v52.66h20.01v-3.16h-16.55Z"/>
          <path class="cls-1" d="M399.77,188.47c-.45-1.62-1.15-3.03-2.1-4.21-.96-1.18-2.17-2.11-3.65-2.78-1.48-.68-3.23-1.02-5.23-1.02s-3.74.34-5.19,1.02c-1.46.67-2.64,1.6-3.57,2.78s-1.62,2.59-2.07,4.21c-.45,1.63-.68,3.4-.68,5.31v26.92c0,1.91.23,3.68.68,5.31s1.14,3.03,2.07,4.21c.93,1.18,2.11,2.1,3.57,2.78,1.45.68,3.19,1.02,5.19,1.02s3.75-.34,5.23-1.02c1.48-.68,2.69-1.6,3.65-2.78.95-1.18,1.65-2.58,2.1-4.21.45-1.63.68-3.4.68-5.31v-26.92c0-1.91-.23-3.68-.68-5.31ZM396.99,220.93c0,2.86-.64,5.23-1.92,7.11-1.28,1.88-3.37,2.82-6.28,2.82s-4.98-.94-6.21-2.82c-1.22-1.88-1.84-4.25-1.84-7.11v-27.38c0-2.86.62-5.23,1.84-7.11,1.23-1.88,3.3-2.82,6.21-2.82s5,.94,6.28,2.82c1.28,1.88,1.92,4.25,1.92,7.11v27.38Z"/>
          <path class="cls-1" d="M428.65,197.69v-3.91c0-1.91-.21-3.68-.64-5.31-.42-1.62-1.1-3.03-2.03-4.21-.92-1.18-2.1-2.11-3.53-2.78-1.43-.68-3.15-1.02-5.15-1.02s-3.73.34-5.16,1.02c-1.42.67-2.6,1.6-3.53,2.78s-1.6,2.59-2.03,4.21c-.43,1.63-.64,3.4-.64,5.31v26.92c0,1.91.21,3.68.64,5.31s1.1,3.03,2.03,4.21c.93,1.18,2.11,2.1,3.53,2.78,1.43.68,3.15,1.02,5.16,1.02s3.72-.34,5.15-1.02c1.43-.68,2.61-1.6,3.53-2.78.93-1.18,1.61-2.58,2.03-4.21.43-1.63.64-3.4.64-5.31v-14.29h-10.3v3.16h6.99v11.36c0,1.4-.13,2.71-.41,3.91-.28,1.2-.74,2.24-1.39,3.12s-1.48,1.57-2.48,2.07c-1.01.5-2.24.75-3.69.75s-2.68-.25-3.68-.75c-1.01-.5-1.83-1.19-2.48-2.07-.66-.88-1.12-1.92-1.4-3.12-.27-1.2-.41-2.51-.41-3.91v-27.38c0-1.4.14-2.71.41-3.91.28-1.2.74-2.26,1.4-3.16.65-.9,1.47-1.61,2.48-2.11,1-.5,2.23-.75,3.68-.75s2.68.25,3.69.75c1,.5,1.83,1.21,2.48,2.11.65.9,1.11,1.96,1.39,3.16.28,1.2.41,2.51.41,3.91v4.14h3.31Z"/>
          <path class="cls-1" d="M434.44,180.91v52.66h3.47v-52.66h-3.47Z"/>
          <path class="cls-1" d="M464.79,214.68c-.92-1.7-2.1-3.22-3.53-4.54-1.43-1.33-2.96-2.56-4.59-3.69s-3.16-2.31-4.59-3.54c-1.43-1.22-2.6-2.59-3.53-4.1-.93-1.5-1.39-3.33-1.39-5.49,0-2.8.58-5.12,1.76-6.95s3.2-2.75,6.06-2.75c1.4,0,2.61.25,3.61.75s1.82,1.2,2.44,2.07c.63.88,1.08,1.91,1.36,3.09.27,1.17.41,2.47.41,3.87v1.35h3.31v-1.12c0-1.91-.21-3.66-.64-5.27-.42-1.6-1.09-3-1.99-4.17-.91-1.18-2.06-2.1-3.46-2.75-1.41-.65-3.11-.98-5.12-.98-3.91.05-6.76,1.26-8.53,3.61-1.78,2.36-2.67,5.52-2.67,9.48,0,2.46.46,4.55,1.39,6.28.92,1.73,2.1,3.26,3.53,4.59,1.43,1.33,2.96,2.54,4.59,3.65,1.63,1.1,3.16,2.27,4.59,3.49,1.43,1.23,2.61,2.6,3.54,4.11.92,1.5,1.39,3.3,1.39,5.41,0,2.81-.61,5.13-1.81,6.96-1.2,1.83-3.26,2.74-6.17,2.74s-4.96-.91-6.16-2.74c-1.21-1.83-1.81-4.15-1.81-6.96v-2.93h-3.31v2.7c0,1.91.21,3.67.64,5.27.42,1.6,1.1,3,2.03,4.17.93,1.18,2.11,2.1,3.53,2.75,1.44.65,3.15.98,5.16.98s3.72-.33,5.15-.98c1.43-.65,2.61-1.57,3.53-2.75.93-1.17,1.61-2.57,2.04-4.17.42-1.6.63-3.36.63-5.27,0-2.4-.46-4.46-1.39-6.17Z"/>
          <path class="cls-1" d="M470.1,180.91v3.16h10.75v49.5h3.46v-49.5h10.68v-3.16h-24.89Z"/>
          <path class="cls-1" d="M499.51,180.91v52.66h3.46v-52.66h-3.46Z"/>
          <path class="cls-1" d="M531.47,198.14v-4.36c0-1.91-.21-3.68-.64-5.31-.42-1.62-1.1-3.03-2.03-4.21-.92-1.18-2.1-2.11-3.53-2.78-1.43-.68-3.15-1.02-5.15-1.02s-3.73.34-5.16,1.02c-1.42.67-2.6,1.6-3.53,2.78s-1.61,2.59-2.03,4.21c-.43,1.63-.64,3.4-.64,5.31v26.92c0,1.91.21,3.68.64,5.31.42,1.63,1.1,3.03,2.03,4.21.93,1.18,2.11,2.1,3.53,2.78,1.43.68,3.15,1.02,5.16,1.02s3.72-.34,5.15-1.02,2.61-1.6,3.53-2.78c.93-1.18,1.61-2.58,2.03-4.21.43-1.63.64-3.4.64-5.31v-6.02h-3.31v6.25c0,1.4-.13,2.71-.41,3.91-.28,1.2-.74,2.24-1.39,3.12-.65.88-1.48,1.57-2.48,2.07-1.01.5-2.24.75-3.69.75s-2.68-.25-3.68-.75c-1.01-.5-1.84-1.19-2.48-2.07-.66-.88-1.12-1.92-1.4-3.12-.27-1.2-.41-2.51-.41-3.91v-27.38c0-1.4.14-2.71.41-3.91.28-1.2.74-2.26,1.4-3.16.64-.9,1.47-1.61,2.48-2.11,1-.5,2.23-.75,3.68-.75s2.68.25,3.69.75c1,.5,1.83,1.21,2.48,2.11.65.9,1.11,1.96,1.39,3.16.28,1.2.41,2.51.41,3.91v4.59h3.31Z"/>
        </g>
      </g>
    </g>
  </g>
</svg>